<?xml version="1.0" encoding="iso-8859-1"?>
<!-- Generator: Adobe Illustrator 24.1.2, SVG Export Plug-In . SVG Version: 6.00 Build 0)  -->
<svg version="1.1" xmlns="http://www.w3.org/2000/svg" xmlns:xlink="http://www.w3.org/1999/xlink" x="0px" y="0px"
	 viewBox="0 0 32 32" style="enable-background:new 0 0 32 32;" xml:space="preserve">
<g id="Layer_10" style="display:none;">
	<g style="display:inline;">
		<path d="M-13,5c9.925,0,18,8.075,18,18s-8.075,18-18,18s-18-8.075-18-18S-22.925,5-13,5 M-13,3c-11.046,0-20,8.954-20,20
			s8.954,20,20,20S7,34.046,7,23S-1.954,3-13,3L-13,3z"/>
	</g>
</g>
<g id="hand_drawn">
</g>
<g id="color_hand_drawn">
</g>
<g id="rounded">
</g>
<g id="cloud">
</g>
<g id="bubble">
</g>
<g id="win10">
	<path d="M27.7,20.726v-1.263l2.676-0.008v-0.911c0,0-0.514,0-0.627,0.003l-0.718-0.003c-0.569,0-1.412-0.446-1.412-1.404v-0.509
		c0-0.932,0.82-1.428,1.412-1.428h2.406v1.271h-2.611v0.879h1.418c0.689,0,1.403,0.525,1.403,1.403v0.566
		c-0.03,1.021-0.877,1.403-1.403,1.403H27.7z"/>
	<path style="fill-rule:evenodd;clip-rule:evenodd;" d="M12.946,20.726l-1.27-1.359l-0.172-0.178v1.538h-1.353v-5.563h2.988
		c0.057,0.006,1.614,0.185,1.614,1.896c0,1.708-1.271,1.843-1.324,1.848l-0.212,0.019l1.783,1.799H12.946z M11.505,17.927h1.337
		c0.054-0.014,0.455-0.176,0.455-0.763c0-0.588-0.396-0.742-0.412-0.749l-1.38-0.006V17.927z"/>
	<path style="fill-rule:evenodd;clip-rule:evenodd;" d="M18.761,20.726v-1.01h-1.679v1.01h-1.377v-4.119
		c0-0.439,0.354-1.403,1.404-1.403h1.576c0.364,0,1.403,0.258,1.403,1.403v4.119H18.761z M17.667,16.369
		c-0.586,0-0.593,0.411-0.593,0.415v1.499h1.679v-1.499c-0.004-0.146-0.123-0.415-0.545-0.415H17.667z"/>
	<rect x="21.008" y="15.203" style="fill-rule:evenodd;clip-rule:evenodd;" width="1.441" height="5.522"/>
	<polygon style="fill-rule:evenodd;clip-rule:evenodd;" points="23.319,20.726 23.319,15.203 24.753,15.203 24.753,19.447 
		26.96,19.447 26.96,20.726 	"/>
	<g>
		<path style="fill-rule:evenodd;clip-rule:evenodd;" d="M17.78,13.66l-0.32,0.29c-4.24-2.84-6.85-1.36-7.69-0.95
			c-4.04,2.26-2.82,7.83-2.82,7.83H0.57c0,0,0.23-2.4,1.93-5.23c1.69-2.82,4.59-4.97,6.95-5.18C13.12,10.05,16.5,12.56,17.78,13.66z
			"/>
	</g>
	<path style="fill-rule:evenodd;clip-rule:evenodd;" d="M13.87,10.876l0.032-0.542c-0.073-0.04-0.275-0.137-0.784-0.283
		l-0.032,0.533C13.353,10.674,13.612,10.771,13.87,10.876z"/>
	<path style="fill-rule:evenodd;clip-rule:evenodd;" d="M13.102,12.589l-0.032,0.509c0.267,0.008,0.533,0.04,0.8,0.097l0.032-0.501
		C13.628,12.638,13.361,12.605,13.102,12.589z"/>
	<path style="fill-rule:evenodd;clip-rule:evenodd;" d="M10.112,10.067h0.081l-0.162-0.493c-0.251,0-0.509,0.016-0.776,0.048
		L9.408,10.1C9.643,10.075,9.877,10.067,10.112,10.067z"/>
	<path style="fill-rule:evenodd;clip-rule:evenodd;" d="M10.5,13.042l0.186,0.558c0.234-0.113,0.469-0.21,0.703-0.283l-0.178-0.533
		C10.936,12.864,10.702,12.953,10.5,13.042z"/>
	<path style="fill-rule:evenodd;clip-rule:evenodd;" d="M6.83,10.916l-0.364-0.558c-0.202,0.105-0.412,0.218-0.63,0.348l0.372,0.566
		C6.418,11.142,6.62,11.021,6.83,10.916z"/>
	<path style="fill-rule:evenodd;clip-rule:evenodd;" d="M8.487,14.553l0.388,0.582c0.137-0.202,0.299-0.388,0.477-0.574l-0.364-0.55
		C8.802,14.182,8.632,14.367,8.487,14.553z"/>
	<path style="fill-rule:evenodd;clip-rule:evenodd;" d="M7.315,17.156l0.655,0.517c0.032-0.315,0.089-0.63,0.17-0.946l-0.582-0.461
		C7.452,16.566,7.38,16.865,7.315,17.156z"/>
	<path style="fill-rule:evenodd;clip-rule:evenodd;" d="M3.775,13.317l-0.574-0.501c-0.21,0.202-0.412,0.404-0.598,0.606
		l0.622,0.533C3.395,13.737,3.581,13.519,3.775,13.317z"/>
	<path style="fill-rule:evenodd;clip-rule:evenodd;" d="M1.334,16.93l-0.93-0.339C0.251,16.938,0.081,17.342,0,17.56L0.93,17.9
		C1.035,17.625,1.204,17.229,1.334,16.93z"/>
	<path style="fill-rule:evenodd;clip-rule:evenodd;" d="M7.194,19.209c0.016,0.428,0.057,0.776,0.097,1.018l0.97,0.348
		c-0.073-0.315-0.145-0.671-0.194-1.051L7.194,19.209z"/>
</g>
<g id="ios_x5F_out">
</g>
<g id="ios_x5F_filled">
</g>
<g id="clipart">
</g>
</svg>