<?xml version="1.0" encoding="UTF-8" standalone="no"?>
<!-- Generator: Adobe Illustrator 22.1.0, SVG Export Plug-In . SVG Version: 6.00 Build 0)  -->

<svg
   xmlns:dc="http://purl.org/dc/elements/1.1/"
   xmlns:cc="http://creativecommons.org/ns#"
   xmlns:rdf="http://www.w3.org/1999/02/22-rdf-syntax-ns#"
   xmlns:svg="http://www.w3.org/2000/svg"
   xmlns="http://www.w3.org/2000/svg"
   xmlns:sodipodi="http://sodipodi.sourceforge.net/DTD/sodipodi-0.dtd"
   xmlns:inkscape="http://www.inkscape.org/namespaces/inkscape"
   viewBox="0 0 48 48"
   width="190px"
   height="190px"
   version="1.1"
   id="svg4538"
   sodipodi:docname="springboot.svg">
  <metadata
     id="metadata4544">
    <rdf:RDF>
      <cc:Work
         rdf:about="">
        <dc:format>image/svg+xml</dc:format>
        <dc:type
           rdf:resource="http://purl.org/dc/dcmitype/StillImage" />
      </cc:Work>
    </rdf:RDF>
  </metadata>
  <defs
     id="defs4542">
    <clipPath
       clipPathUnits="userSpaceOnUse"
       id="clipPath4633">
      <path
         style="fill:#0000ff;stroke-width:0;stroke-miterlimit:4;stroke-dasharray:none"
         d="M 3.7726974,1.2527961 V 47.390132 H 48.197861 V 1.2527961 Z m 35.5115136,7.605592 c 0,0 3.869067,10.8072359 2.414309,18.1075649 -0.896701,4.499863 -2.231316,6.441979 -5.73306,8.547534 -2.407187,1.447412 -7.108585,1.529937 -10.945065,1.54342 -4.414677,0.01551 -8.208553,-0.05674 -8.208553,-0.05674 0,0 1.383157,-0.505624 3.371053,-1.14819 2.155493,-0.696738 5.011923,-1.579544 7.309047,-2.821874 1.938705,-1.048492 4.21154,-3.132758 6.078947,-5.408388 1.137042,-1.385608 1.908589,-2.705587 2.507566,-3.932073 1.305951,-2.674119 1.60855,-4.65148 1.60855,-4.65148 0,0 -0.482809,1.633659 -1.731905,3.670559 -1.463394,2.386352 -3.947737,5.350911 -7.474836,7.261677 -0.820893,0.44471 -1.998098,1.181856 -3.345889,1.742764 -3.527503,1.468037 -10.694427,2.963661 -10.799013,2.959046 h -0.0054 c 0,0 -1.275719,-0.556603 -2.047203,-1.590296 -0.842085,-1.128288 -1.304908,-2.678465 -1.331251,-3.96365 -0.07681,-3.747343 1.564669,-7.001904 4.61842,-9.175166 3.970396,-2.825611 10.469265,-1.431174 15.374999,-3.534868 6.759497,-2.898632 8.339311,-7.5498359 8.339311,-7.5498359 z"
         id="path4635"
         inkscape:connector-curvature="0" />
    </clipPath>
    <clipPath
       clipPathUnits="userSpaceOnUse"
       id="clipPath4637">
      <path
         style="fill:#0000ff;stroke-width:0;stroke-miterlimit:4;stroke-dasharray:none"
         d="M 3.7726974,1.2527961 V 47.390132 H 48.197861 V 1.2527961 Z m 35.5115136,7.605592 c 0,0 3.869067,10.8072359 2.414309,18.1075649 -0.896701,4.499863 -2.231316,6.441979 -5.73306,8.547534 -2.407187,1.447412 -7.108585,1.529937 -10.945065,1.54342 -4.414677,0.01551 -8.208553,-0.05674 -8.208553,-0.05674 0,0 1.383157,-0.505624 3.371053,-1.14819 2.155493,-0.696738 5.011923,-1.579544 7.309047,-2.821874 1.938705,-1.048492 4.21154,-3.132758 6.078947,-5.408388 1.137042,-1.385608 1.908589,-2.705587 2.507566,-3.932073 1.305951,-2.674119 1.60855,-4.65148 1.60855,-4.65148 0,0 -0.482809,1.633659 -1.731905,3.670559 -1.463394,2.386352 -3.947737,5.350911 -7.474836,7.261677 -0.820893,0.44471 -1.998098,1.181856 -3.345889,1.742764 -3.527503,1.468037 -10.694427,2.963661 -10.799013,2.959046 h -0.0054 c 0,0 -1.275719,-0.556603 -2.047203,-1.590296 -0.842085,-1.128288 -1.304908,-2.678465 -1.331251,-3.96365 -0.07681,-3.747343 1.564669,-7.001904 4.61842,-9.175166 3.970396,-2.825611 10.469265,-1.431174 15.374999,-3.534868 6.759497,-2.898632 8.339311,-7.5498359 8.339311,-7.5498359 z"
         id="path4639"
         inkscape:connector-curvature="0" />
    </clipPath>
    <clipPath
       clipPathUnits="userSpaceOnUse"
       id="clipPath4641">
      <path
         style="fill:#0000ff;stroke-width:0;stroke-miterlimit:4;stroke-dasharray:none"
         d="M 3.7726974,1.2527961 V 47.390132 H 48.197861 V 1.2527961 Z m 35.5115136,7.605592 c 0,0 3.869067,10.8072359 2.414309,18.1075649 -0.896701,4.499863 -2.231316,6.441979 -5.73306,8.547534 -2.407187,1.447412 -7.108585,1.529937 -10.945065,1.54342 -4.414677,0.01551 -8.208553,-0.05674 -8.208553,-0.05674 0,0 1.383157,-0.505624 3.371053,-1.14819 2.155493,-0.696738 5.011923,-1.579544 7.309047,-2.821874 1.938705,-1.048492 4.21154,-3.132758 6.078947,-5.408388 1.137042,-1.385608 1.908589,-2.705587 2.507566,-3.932073 1.305951,-2.674119 1.60855,-4.65148 1.60855,-4.65148 0,0 -0.482809,1.633659 -1.731905,3.670559 -1.463394,2.386352 -3.947737,5.350911 -7.474836,7.261677 -0.820893,0.44471 -1.998098,1.181856 -3.345889,1.742764 -3.527503,1.468037 -10.694427,2.963661 -10.799013,2.959046 h -0.0054 c 0,0 -1.275719,-0.556603 -2.047203,-1.590296 -0.842085,-1.128288 -1.304908,-2.678465 -1.331251,-3.96365 -0.07681,-3.747343 1.564669,-7.001904 4.61842,-9.175166 3.970396,-2.825611 10.469265,-1.431174 15.374999,-3.534868 6.759497,-2.898632 8.339311,-7.5498359 8.339311,-7.5498359 z"
         id="path4643"
         inkscape:connector-curvature="0" />
    </clipPath>
  </defs>
  <sodipodi:namedview
     pagecolor="#ffffff"
     bordercolor="#666666"
     borderopacity="1"
     objecttolerance="10"
     gridtolerance="10"
     guidetolerance="10"
     inkscape:pageopacity="0"
     inkscape:pageshadow="2"
     inkscape:window-width="640"
     inkscape:window-height="480"
     id="namedview4540"
     showgrid="false" />
  <path
     style="fill:#8bc34a;stroke-width:3.95833325"
     clip-path="url(#clipPath4641)"
     d="M 156.44531 18.0625 L 155.59961 19.822266 L 157.03711 19.822266 L 156.44531 18.0625 z M 95 19.25 C 91.776503 19.25 88.599158 19.447867 85.476562 19.822266 L 104.36719 19.822266 C 101.29402 19.457515 98.172422 19.25 95 19.25 z M 168.75 57.109375 L 168.75 127.19141 C 172.23366 118.26979 174.16602 108.57139 174.16602 98.416016 C 174.16602 97.929141 174.10362 97.459531 174.0957 96.972656 C 174.28541 85.257518 172.50499 71.998412 168.75 57.109375 z M 21.25 69.640625 C 17.766158 78.562442 15.833984 88.260362 15.833984 98.416016 C 15.833984 108.57139 17.76634 118.26979 21.25 127.19141 L 21.25 69.640625 z M 78.384766 175.82227 C 83.743989 176.96716 89.299009 177.58398 95 177.58398 C 100.70099 177.58398 106.25601 176.96716 111.61523 175.82227 L 78.384766 175.82227 z "
     transform="scale(0.25263158)"
     id="path4532" />
  <path
     style="fill:#FFFFFF;"
     d="M39.385,32.558c-3.123,4.302-8.651,4.533-13.854,4.442H18.75h-1.938  c4.428-1.593,7.063-1.972,9.754-3.4c5.068-2.665,10.078-8.496,11.121-14.562c-1.93,5.836-7.779,10.85-13.109,12.889  c-3.652,1.393-10.248,2.745-10.248,2.745l-0.267-0.145C9.573,32.268,9.437,22.214,17.6,18.968c3.574-1.423,6.993-0.641,10.854-1.593  c4.122-1.012,8.89-4.208,10.83-8.375C41.456,15.667,44.07,26.106,39.385,32.558L39.385,32.558z"
     id="path4534"
     clip-path="url(#clipPath4637)" />
  <path
     style="fill:#FFFFFF;"
     d="M15.668,38.445C15.386,38.795,14.955,39,14.505,39c-0.823,0-1.495-0.677-1.495-1.5  s0.677-1.5,1.495-1.5c0.341,0,0.677,0.118,0.941,0.336C16.086,36.855,16.186,37.805,15.668,38.445L15.668,38.445z"
     id="path4536"
     clip-path="url(#clipPath4633)" />
  <ellipse
     style="fill:#0000ff;stroke-width:0;stroke-miterlimit:4;stroke-dasharray:none"
     id="path4645"
     cx="57.398682"
     cy="148.40457"
     rx="5.9787784"
     ry="1.5249653" />
</svg>
